<svg width="100" height="22" viewBox="0 0 100 22" fill="none" xmlns="http://www.w3.org/2000/svg">
<path d="M5.71845 17.1792C4.60653 17.1792 3.55815 16.9727 2.5733 16.5597C1.58846 16.1467 0.730691 15.5828 0 14.868L1.38196 13.2477C1.98557 13.8037 2.66861 14.2564 3.43107 14.6059C4.19353 14.9394 5.00364 15.1062 5.86141 15.1062C6.84625 15.1062 7.60871 14.8997 8.14879 14.4867C8.68887 14.0737 8.9589 13.5495 8.9589 12.9142C8.9589 12.4059 8.83977 12.0008 8.6015 11.699C8.36323 11.3972 8.0376 11.143 7.6246 10.9365C7.22748 10.73 6.76683 10.5235 6.24264 10.317L4.05057 9.34013C3.52638 9.13363 3.00219 8.8636 2.47799 8.53002C1.96969 8.18056 1.54875 7.74373 1.21517 7.21954C0.881594 6.67947 0.714806 6.0282 0.714806 5.26574C0.714806 4.45563 0.93719 3.73288 1.38196 3.09749C1.82673 2.44623 2.44623 1.93792 3.24045 1.57257C4.03468 1.19134 4.94805 1.00073 5.98054 1.00073C6.9495 1.00073 7.85493 1.1834 8.69681 1.54875C9.53869 1.89821 10.2614 2.3668 10.8651 2.95453L9.62605 4.47945C9.11775 4.03468 8.56179 3.69317 7.95817 3.4549C7.37045 3.20074 6.67152 3.07367 5.86141 3.07367C5.0513 3.07367 4.39209 3.25634 3.88378 3.62168C3.37547 3.98703 3.12132 4.48739 3.12132 5.12278C3.12132 5.58343 3.2484 5.95672 3.50255 6.24264C3.77259 6.52856 4.11411 6.76683 4.52711 6.95745C4.95599 7.14806 5.39282 7.33868 5.83758 7.52929L7.95817 8.45854C8.60944 8.71269 9.18923 9.02244 9.69754 9.38779C10.2217 9.73725 10.6347 10.1741 10.9365 10.6983C11.2383 11.2225 11.3892 11.8658 11.3892 12.6282C11.3892 13.4701 11.1589 14.2405 10.6983 14.9394C10.2535 15.6225 9.60223 16.1705 8.74446 16.5835C7.90258 16.9806 6.89391 17.1792 5.71845 17.1792Z" fill="#0C1C4F"/>
<path d="M22.1497 17.1792C20.9742 17.1792 20.045 16.9727 19.3619 16.5597C18.6948 16.1467 18.2182 15.5748 17.9323 14.8441C17.6464 14.1134 17.5034 13.2636 17.5034 12.2947V7.14806H14.3106V5.38487L17.5987 5.24191L17.9085 1.57257H19.8623V5.24191H25.3663V7.14806H19.8623V12.2947C19.8623 12.9459 19.9497 13.5019 20.1244 13.9625C20.2991 14.4073 20.593 14.7409 21.006 14.9633C21.419 15.1698 21.975 15.273 22.6739 15.273C23.1981 15.273 23.6746 15.2333 24.1035 15.1539C24.5324 15.0586 24.9454 14.9394 25.3425 14.7965L25.819 16.512C25.2948 16.6868 24.7309 16.8377 24.1273 16.9647C23.5396 17.1077 22.8804 17.1792 22.1497 17.1792Z" fill="#0C1C4F"/>
<path d="M32.791 17.1792C31.4249 17.1792 30.4162 16.7741 29.765 15.964C29.1296 15.1539 28.8119 13.9864 28.8119 12.4615V5.24191H31.1708V12.1517C31.1708 13.1842 31.3534 13.9467 31.7188 14.4391C32.1 14.9156 32.7274 15.1539 33.6011 15.1539C34.2206 15.1539 34.7766 15.003 35.269 14.7012C35.7614 14.3994 36.2935 13.907 36.8654 13.2239V5.24191H39.2242V16.8933H37.2943L37.1036 14.9633H37.0083C36.4365 15.6145 35.8091 16.1467 35.126 16.5597C34.4589 16.9727 33.6805 17.1792 32.791 17.1792Z" fill="#0C1C4F"/>
<path d="M47.7211 17.1792C46.2121 17.1792 44.9969 16.647 44.0756 15.5828C43.1543 14.5026 42.6937 13.0015 42.6937 11.0795C42.6937 9.82461 42.9399 8.74446 43.4323 7.83904C43.9406 6.91774 44.5919 6.21087 45.3861 5.71845C46.1803 5.21014 47.0222 4.95599 47.9117 4.95599C48.5948 4.95599 49.2063 5.08307 49.7464 5.33722C50.2865 5.59137 50.7868 5.94878 51.2475 6.40943H51.319L51.1998 4.33649V0H53.5587V16.8933H51.6287L51.4381 15.4636H51.3666C50.906 15.9243 50.358 16.3293 49.7226 16.6788C49.0872 17.0124 48.42 17.1792 47.7211 17.1792ZM48.2691 15.2254C48.7933 15.2254 49.2937 15.0983 49.7702 14.8441C50.2627 14.5741 50.7392 14.177 51.1998 13.6528V8.12496C50.7392 7.69608 50.2785 7.39427 49.8179 7.21954C49.3572 7.02893 48.8966 6.93362 48.4359 6.93362C47.8323 6.93362 47.2764 7.10041 46.7681 7.43398C46.2756 7.76756 45.8785 8.2441 45.5767 8.8636C45.2749 9.48309 45.124 10.2138 45.124 11.0557C45.124 12.39 45.402 13.4225 45.9579 14.1532C46.5139 14.868 47.2843 15.2254 48.2691 15.2254Z" fill="#0C1C4F"/>
<path d="M58.839 21.7778C58.553 21.7778 58.2671 21.7539 57.9812 21.7063C57.6953 21.6586 57.4491 21.603 57.2426 21.5395L57.7191 19.7048C57.8621 19.7525 58.0209 19.7922 58.1956 19.824C58.3704 19.8557 58.5451 19.8716 58.7198 19.8716C59.4982 19.8716 60.1256 19.6572 60.6021 19.2283C61.0787 18.7994 61.452 18.2673 61.722 17.6319L62.0318 16.8218L56.7184 5.24191H59.0772L61.6982 11.3178C61.9047 11.842 62.1191 12.3979 62.3415 12.9856C62.5798 13.5575 62.8181 14.1373 63.0563 14.725H63.1516C63.3422 14.169 63.5408 13.5972 63.7473 13.0095C63.9538 12.4059 64.1524 11.842 64.343 11.3178L66.6542 5.24191H68.8939L63.9141 17.6319C63.6123 18.4579 63.239 19.1806 62.7942 19.8001C62.3495 20.4196 61.8014 20.9041 61.1502 21.2536C60.5148 21.603 59.7444 21.7778 58.839 21.7778Z" fill="#0C1C4F"/>
<path d="M80.3045 17.1792C79.1132 17.1792 78.0568 16.8615 77.1355 16.2261C76.2301 15.5748 75.5153 14.6456 74.9911 13.4384C74.4828 12.2152 74.2286 10.7459 74.2286 9.03038C74.2286 7.33073 74.4828 5.88524 74.9911 4.69389C75.5153 3.48667 76.2301 2.5733 77.1355 1.9538C78.0568 1.31842 79.1132 1.00073 80.3045 1.00073C81.4958 1.00073 82.5442 1.31842 83.4496 1.9538C84.3709 2.5733 85.0857 3.48667 85.5941 4.69389C86.1182 5.88524 86.3803 7.33073 86.3803 9.03038C86.3803 10.7459 86.1182 12.2152 85.5941 13.4384C85.0857 14.6456 84.3709 15.5748 83.4496 16.2261C82.5442 16.8615 81.4958 17.1792 80.3045 17.1792ZM80.3045 15.1062C81.0352 15.1062 81.6706 14.868 82.2106 14.3914C82.7507 13.899 83.1717 13.2001 83.4735 12.2947C83.7753 11.3892 83.9262 10.3012 83.9262 9.03038C83.9262 7.75962 83.7753 6.68741 83.4735 5.81376C83.1717 4.92422 82.7507 4.24913 82.2106 3.78847C81.6706 3.31194 81.0352 3.07367 80.3045 3.07367C79.5738 3.07367 78.9384 3.31194 78.3983 3.78847C77.8583 4.24913 77.4373 4.92422 77.1355 5.81376C76.8337 6.68741 76.6828 7.75962 76.6828 9.03038C76.6828 10.3012 76.8337 11.3892 77.1355 12.2947C77.4373 13.2001 77.8583 13.899 78.3983 14.3914C78.9384 14.868 79.5738 15.1062 80.3045 15.1062Z" fill="#DBB240"/>
<path d="M89.54 16.8933V5.24191H91.47L91.6606 7.12423H91.7559C92.3436 6.52062 92.979 6.01231 93.6621 5.59931C94.3451 5.17043 95.1393 4.95599 96.0447 4.95599C97.3949 4.95599 98.3877 5.36899 99.0231 6.19499C99.6744 7.0051 100 8.16467 100 9.67371V16.8933H97.6412V9.98346C97.6412 8.96685 97.4505 8.22027 97.0693 7.74373C96.704 7.25131 96.0845 7.0051 95.2108 7.0051C94.5913 7.0051 94.0353 7.16395 93.5429 7.48164C93.0505 7.78344 92.5025 8.2441 91.8989 8.8636V16.8933H89.54Z" fill="#DBB240"/>
<path d="M71.9651 15.9005C71.9651 16.4488 71.5206 16.8933 70.9723 16.8933C70.424 16.8933 69.9795 16.4488 69.9795 15.9005C69.9795 15.3522 70.424 14.9077 70.9723 14.9077C71.5206 14.9077 71.9651 15.3522 71.9651 15.9005Z" fill="#0C1C4F"/>
</svg>
